:SAMPLES-PER-SECOND 30
:FULLY-SPECIFIED
:DEGREES
306
root  -61.7006 38.7923 -3.58337 -6.5809 -76.8908 -0.683426
RightUpLeg  -10.8489 20.7971 -6.82129
RightLeg  35.8639 21.6832 15.8333
RightFoot  -15.351 0.103447 5.94877
RightToes  2.21189e-009 0 -3.6325e-017
Spine  18.1209 -0.176956 0.833911
Spine1  10.32 0.609537 -2.89528
HEad  -13.6138 23.8091 -7.97545
LeftShoulder1  1.09919 -0.95149 -18.0512
LeftArm  -19.707 -43.5138 -39.1653
LeftForeArm  -10.7015 -56.7443 -18.3013
LeftHand  -0.0423871 5.86788 -1.99376
RightShoulder  0.551342 -0.680491 12.6256
RightArm  -29.5326 34.998 31.305
RightForeArm  -14.1808 66.4865 29.2806
RightHand  -0.0243768 -1.57955 -0.51906
LeftUpLeg  -20.4226 0.133844 5.6071
LeftLeg  25.3436 -16.1236 -7.8485
LeftFoot  7.04254 0.783906 -5.10511
LeftToes  -3.01956e-010 3.07132e-011 1.04116e-011
307
root  -61.5241 38.7358 -4.32156 -7.71817 -72.4942 -0.0778961
RightUpLeg  -8.1149 17.604 -5.37047
RightLeg  32.8796 18.2134 12.0813
RightFoot  -16.9956 -0.0264407 1.66694
RightToes  2.21189e-009 0 -3.6325e-017
Spine  16.7477 -0.573456 1.81437
Spine1  11.4155 0.313046 -2.65948
HEad  -13.4803 26.6728 -10.0485
LeftShoulder1  1.11318 -0.933435 -18.5192
LeftArm  -17.8811 -42.2399 -40.5198
LeftForeArm  -9.35872 -58.9394 -19.9256
LeftHand  -0.0485317 6.19008 -1.90378
RightShoulder  0.411699 -1.47579 13.4671
RightArm  -29.5161 30.5594 30.5992
RightForeArm  -5.659 71.7096 39.9568
RightHand  -0.0748823 -2.26925 -2.33486
LeftUpLeg  -20.2254 -2.54095 5.51721
LeftLeg  23.2665 -17.678 -7.86734
LeftFoot  8.67926 1.08553 -6.4529
LeftToes  -3.01956e-010 3.07132e-011 1.04116e-011
308
root  -61.1968 38.7957 -5.13135 -8.46864 -67.977 0.645416
RightUpLeg  -7.06182 14.9065 -4.49669
RightLeg  30.6378 14.2594 8.72958
RightFoot  -16.6535 -0.127444 -0.321351
RightToes  2.21189e-009 0 -3.6325e-017
Spine  16.1239 -0.922088 2.75321
Spine1  11.5414 0.066677 -2.63886
HEad  -13.48 29.2772 -11.5103
LeftShoulder1  1.06187 -0.603187 -19.3256
LeftArm  -16.1943 -41.5815 -41.5705
LeftForeArm  -8.32861 -60.685 -21.4066
LeftHand  -0.0618386 6.81944 -1.67848
RightShoulder  0.313225 -1.96918 13.7525
RightArm  -29.6282 25.4256 30.1921
RightForeArm  9.86541 75.8279 57.6546
RightHand  -0.116835 -2.51789 -4.27202
LeftUpLeg  -19.5957 -3.61829 4.92833
LeftLeg  18.7033 -21.3275 -7.28535
LeftFoot  12.02 1.51992 -7.68858
LeftToes  -3.01956e-010 3.07132e-011 1.04116e-011
309
root  -60.7926 38.9186 -5.98739 -7.12122 -62.6359 0.295746
RightUpLeg  -7.9992 11.6261 -4.25023
RightLeg  29.4801 12.2855 7.18955
RightFoot  -15.208 -0.118975 -0.484468
RightToes  2.21189e-009 0 -3.6325e-017
Spine  15.2536 -1.57096 4.14829
Spine1  11.156 -0.314069 -3.44882
HEad  -13.7235 31.8906 -12.077
LeftShoulder1  0.993108 -0.349486 -19.2425
LeftArm  -14.5365 -40.31 -43.4427
LeftForeArm  -5.72328 -62.2511 -22.7853
LeftHand  -0.0371983 5.61371 -2.14181
RightShoulder  0.257849 -2.31441 15.2014
RightArm  -29.9564 19.6319 28.7043
RightForeArm  36.4351 77.9573 85.5139
RightHand  -0.117318 -2.99951 -5.07932
LeftUpLeg  -19.3405 -1.29961 3.2829
LeftLeg  11.8958 -27.4296 -5.02047
LeftFoot  16.6287 2.57116 -10.6577
LeftToes  -3.01956e-010 3.07132e-011 1.04116e-011
310
root  -60.3854 39.0629 -6.78402 -6.21654 -56.8041 -0.00765991
RightUpLeg  -8.3035 5.66065 -4.49969
RightLeg  28.0963 12.2759 6.79814
RightFoot  -13.674 -0.106447 -0.667441
RightToes  2.21189e-009 0 -3.6325e-017
Spine  14.6535 -2.2316 5.01771
Spine1  10.6766 -0.995095 -3.50638
HEad  -13.8154 33.3704 -12.8012
LeftShoulder1  0.953891 -0.162225 -19.5044
LeftArm  -12.4223 -38.5818 -44.8362
LeftForeArm  -3.63491 -64.24 -24.87
LeftHand  -0.0281404 5.06861 -2.04765
RightShoulder  0.205044 -2.58813 16.2568
RightArm  -29.8288 13.9092 27.5121
RightForeArm  58.4905 77.3359 108.393
RightHand  -0.103982 -3.46838 -5.38558
LeftUpLeg  -18.0386 1.95236 1.15513
LeftLeg  4.51926 -27.2539 -1.39014
LeftFoot  17.647 3.8268 -15.1916
LeftToes  -3.01956e-010 3.07132e-011 1.04116e-011
